<svg width="156" height="22" viewBox="0 0 156 22" fill="none" xmlns="http://www.w3.org/2000/svg">
<path d="M0.232668 20.6024H3.38529V1.1754H0.232668V0.77777H9.37812V1.1754H6.22549V10.4629H15.6834V1.1754H12.5307V0.77777H21.6762V1.1754H18.5236V20.6024H21.6762V21H12.5307V20.6024H15.6834V10.8605H6.22549V20.6024H9.37812V21H0.232668V20.6024ZM26.6587 14.922C26.6587 16.2663 26.7629 17.3361 26.9712 18.1314C27.1794 18.9267 27.454 19.542 27.7948 19.9775C28.1356 20.3941 28.5333 20.6686 28.9877 20.8012C29.4421 20.9337 29.925 21 30.4362 21C30.9474 21 31.4303 20.9337 31.8847 20.8012C32.3391 20.6686 32.7368 20.3941 33.0776 19.9775C33.4184 19.542 33.693 18.9267 33.9013 18.1314C34.1095 17.3361 34.2137 16.2663 34.2137 14.922C34.2137 13.7859 34.1379 12.8392 33.9865 12.0818C33.835 11.3054 33.5983 10.6806 33.2764 10.2072C32.9735 9.71493 32.5853 9.36464 32.1119 9.15636C31.6386 8.94808 31.08 8.84394 30.4362 8.84394C29.7924 8.84394 29.2339 8.94808 28.7605 9.15636C28.2871 9.36464 27.8895 9.71493 27.5676 10.2072C27.2646 10.6806 27.0374 11.3054 26.886 12.0818C26.7345 12.8392 26.6587 13.7859 26.6587 14.922ZM23.8185 14.922C23.8185 13.9942 24.0174 13.1326 24.415 12.3374C24.8315 11.5421 25.3522 10.8605 25.9771 10.2924C26.6209 9.70547 27.3309 9.25104 28.1072 8.92915C28.9025 8.60726 29.6788 8.44631 30.4362 8.44631C31.1936 8.44631 31.9604 8.60726 32.7368 8.92915C33.532 9.25104 34.2421 9.70547 34.8669 10.2924C35.5107 10.8605 36.0314 11.5421 36.429 12.3374C36.8456 13.1326 37.0539 13.9942 37.0539 14.922C37.0539 15.8119 36.8645 16.6545 36.4858 17.4497C36.1071 18.2261 35.6054 18.9077 34.9805 19.4947C34.3746 20.0817 33.674 20.5456 32.8788 20.8864C32.0835 21.2272 31.2693 21.3976 30.4362 21.3976C29.6031 21.3976 28.7889 21.2272 27.9936 20.8864C27.1984 20.5456 26.4883 20.0817 25.8635 19.4947C25.2576 18.9077 24.7653 18.2261 24.3866 17.4497C24.0079 16.6545 23.8185 15.8119 23.8185 14.922ZM38.8905 20.6024H41.0774V9.21317H38.8905V8.81554H43.4632V11.7977H43.52C43.9176 10.6617 44.4857 9.82854 45.2241 9.29837C45.9815 8.7682 46.8904 8.50312 47.9507 8.50312C48.8974 8.50312 49.7306 8.7114 50.4501 9.12796C51.1885 9.54452 51.6714 10.2356 51.8986 11.2013H51.9554C52.0879 10.8605 52.2678 10.5291 52.495 10.2072C52.7222 9.88535 53.0063 9.60133 53.3471 9.35518C53.6879 9.09009 54.0855 8.88181 54.54 8.73033C55.0133 8.57885 55.5435 8.50312 56.1305 8.50312C58.8949 8.50312 60.2772 9.91375 60.2772 12.735V20.6024H62.4641V21H55.6476V20.6024H57.8346V10.9457C57.8346 10.3019 57.6547 9.80014 57.295 9.44038C56.9541 9.08062 56.4808 8.90074 55.8749 8.90074C55.4015 8.90074 54.9281 8.99542 54.4548 9.18476C53.9814 9.35518 53.5554 9.62026 53.1767 9.98002C52.798 10.3398 52.4856 10.8037 52.2394 11.3717C52.0122 11.9398 51.8986 12.6025 51.8986 13.3599V20.6024H54.0855V21H47.2691V20.6024H49.456V11.3433C49.456 10.5102 49.2856 9.89481 48.9448 9.49719C48.6039 9.09956 48.1495 8.90074 47.5815 8.90074C47.1838 8.90074 46.7484 9.00488 46.275 9.21317C45.8016 9.40251 45.3567 9.71493 44.9401 10.1504C44.5425 10.567 44.2016 11.1161 43.9176 11.7977C43.6525 12.4794 43.52 13.3125 43.52 14.2971V20.6024H45.7069V21H38.8905V20.6024ZM73.033 13.5587C73.0709 13.2936 73.0898 13.0474 73.0898 12.8202C73.0898 12.593 73.0898 12.3563 73.0898 12.1102C73.0898 11.4664 73.0235 10.9362 72.891 10.5197C72.7774 10.1031 72.607 9.77174 72.3798 9.52559C72.1715 9.27944 71.9064 9.10903 71.5845 9.01435C71.2816 8.90074 70.9502 8.84394 70.5904 8.84394C69.9467 8.84394 69.4165 8.97648 68.9999 9.24157C68.5834 9.48772 68.252 9.82854 68.0059 10.264C67.7597 10.6995 67.5704 11.2013 67.4378 11.7693C67.3242 12.3374 67.2485 12.9338 67.2106 13.5587H73.033ZM67.1822 13.9563C67.1822 14.1456 67.1727 14.3445 67.1538 14.5527C67.1538 14.7421 67.1538 14.9882 67.1538 15.2912C67.1538 15.916 67.1917 16.5693 67.2674 17.2509C67.3431 17.9326 67.5041 18.548 67.7502 19.0971C68.0153 19.6462 68.394 20.1006 68.8863 20.4604C69.3975 20.8201 70.0697 21 70.9029 21C71.736 21 72.4176 20.8769 72.9478 20.6308C73.4969 20.3846 73.9229 20.0911 74.2259 19.7503C74.5478 19.3906 74.7845 19.0308 74.9359 18.671C75.0874 18.3113 75.201 18.0178 75.2768 17.7906L75.7028 17.8758C75.646 18.0841 75.5324 18.387 75.362 18.7846C75.2105 19.1633 74.9549 19.5515 74.5951 19.9491C74.2543 20.3278 73.7809 20.6686 73.175 20.9716C72.588 21.2556 71.8212 21.3976 70.8745 21.3976C69.9277 21.3976 69.0473 21.2462 68.2331 20.9432C67.4378 20.6402 66.7467 20.2047 66.1597 19.6367C65.5727 19.0687 65.1183 18.3965 64.7964 17.6202C64.4745 16.8249 64.3136 15.9444 64.3136 14.9788C64.3136 14.1456 64.4745 13.3409 64.7964 12.5646C65.1372 11.7693 65.5917 11.0688 66.1597 10.4629C66.7467 9.85694 67.4283 9.37411 68.2047 9.01435C68.981 8.63566 69.8141 8.44631 70.704 8.44631C71.2342 8.44631 71.8023 8.54099 72.4082 8.73033C73.0141 8.91968 73.5726 9.2321 74.0839 9.6676C74.6141 10.0842 75.0495 10.6427 75.3904 11.3433C75.7501 12.0439 75.93 12.9149 75.93 13.9563H67.1822ZM84.0814 20.6024C84.4033 20.6402 84.7725 20.6686 85.1891 20.6876C85.6246 20.7065 86.0979 20.716 86.6092 20.716C87.2529 20.716 87.8873 20.6876 88.5121 20.6308C89.1559 20.555 89.7618 20.413 90.3298 20.2047C90.9168 19.9775 91.4564 19.6651 91.9487 19.2675C92.46 18.8509 92.9144 18.3113 93.312 17.6486C93.918 16.6261 94.3345 15.5847 94.5617 14.5243C94.8079 13.4451 94.931 12.2711 94.931 11.0025C94.931 9.50665 94.7889 8.15282 94.5049 6.94101C94.2209 5.71025 93.7475 4.66885 93.0848 3.81678C92.441 2.94579 91.5795 2.27361 90.5002 1.80024C89.421 1.32687 88.0861 1.09019 86.4956 1.09019C86.0222 1.09019 85.5867 1.09966 85.1891 1.11859C84.8104 1.13753 84.4411 1.15646 84.0814 1.1754V20.6024ZM78.0886 20.6024H81.2412V1.1754H78.0886V0.77777H83.3713C83.6364 0.77777 83.9015 0.77777 84.1666 0.77777C84.4317 0.758834 84.6968 0.739899 84.9619 0.720965C85.2269 0.720965 85.492 0.720965 85.7571 0.720965C86.0222 0.702031 86.2873 0.692563 86.5524 0.692563C87.1204 0.692563 87.6222 0.702031 88.0577 0.720965C88.5121 0.739899 88.9287 0.777769 89.3074 0.834573C89.705 0.872443 90.0742 0.938715 90.415 1.03339C90.7748 1.10913 91.1535 1.21327 91.5511 1.34581C92.7061 1.7245 93.7002 2.23574 94.5333 2.87952C95.3854 3.50436 96.0765 4.23335 96.6067 5.06647C97.1558 5.8996 97.5534 6.80846 97.7996 7.79307C98.0646 8.77767 98.1972 9.80961 98.1972 10.8889C98.1972 12.1386 98.0457 13.2652 97.7428 14.2687C97.4398 15.2533 97.0232 16.1338 96.4931 16.9101C95.9629 17.6675 95.3381 18.3302 94.6185 18.8983C93.918 19.4474 93.1606 19.8923 92.3464 20.2331C91.8919 20.4414 91.4564 20.6024 91.0399 20.716C90.6423 20.8296 90.2257 20.9148 89.7902 20.9716C89.3736 21.0284 88.9097 21.0663 88.3985 21.0852C87.8873 21.1041 87.3003 21.1136 86.6376 21.1136C86.3535 21.1136 86.0506 21.1041 85.7287 21.0852C85.4068 21.0852 85.0849 21.0757 84.763 21.0568C84.4411 21.0379 84.1193 21.0189 83.7974 21C83.4944 21 83.2009 21 82.9169 21H78.0886V20.6024ZM110.394 13.5587C110.432 13.2936 110.451 13.0474 110.451 12.8202C110.451 12.593 110.451 12.3563 110.451 12.1102C110.451 11.4664 110.384 10.9362 110.252 10.5197C110.138 10.1031 109.968 9.77174 109.741 9.52559C109.532 9.27944 109.267 9.10903 108.945 9.01435C108.642 8.90074 108.311 8.84394 107.951 8.84394C107.307 8.84394 106.777 8.97648 106.361 9.24157C105.944 9.48772 105.613 9.82854 105.367 10.264C105.121 10.6995 104.931 11.2013 104.799 11.7693C104.685 12.3374 104.609 12.9338 104.571 13.5587H110.394ZM104.543 13.9563C104.543 14.1456 104.534 14.3445 104.515 14.5527C104.515 14.7421 104.515 14.9882 104.515 15.2912C104.515 15.916 104.553 16.5693 104.628 17.2509C104.704 17.9326 104.865 18.548 105.111 19.0971C105.376 19.6462 105.755 20.1006 106.247 20.4604C106.758 20.8201 107.431 21 108.264 21C109.097 21 109.778 20.8769 110.309 20.6308C110.858 20.3846 111.284 20.0911 111.587 19.7503C111.909 19.3906 112.145 19.0308 112.297 18.671C112.448 18.3113 112.562 18.0178 112.638 17.7906L113.064 17.8758C113.007 18.0841 112.893 18.387 112.723 18.7846C112.571 19.1633 112.316 19.5515 111.956 19.9491C111.615 20.3278 111.142 20.6686 110.536 20.9716C109.949 21.2556 109.182 21.3976 108.235 21.3976C107.289 21.3976 106.408 21.2462 105.594 20.9432C104.799 20.6402 104.108 20.2047 103.521 19.6367C102.934 19.0687 102.479 18.3965 102.157 17.6202C101.835 16.8249 101.674 15.9444 101.674 14.9788C101.674 14.1456 101.835 13.3409 102.157 12.5646C102.498 11.7693 102.953 11.0688 103.521 10.4629C104.108 9.85694 104.789 9.37411 105.566 9.01435C106.342 8.63566 107.175 8.44631 108.065 8.44631C108.595 8.44631 109.163 8.54099 109.769 8.73033C110.375 8.91968 110.933 9.2321 111.445 9.6676C111.975 10.0842 112.41 10.6427 112.751 11.3433C113.111 12.0439 113.291 12.9149 113.291 13.9563H104.543ZM127.265 17.8758C127.208 18.0841 127.094 18.387 126.924 18.7846C126.772 19.1633 126.517 19.5515 126.157 19.9491C125.816 20.3278 125.343 20.6686 124.737 20.9716C124.15 21.2556 123.383 21.3976 122.436 21.3976C121.717 21.3976 120.969 21.284 120.193 21.0568C119.416 20.8296 118.706 20.4698 118.062 19.9775C117.419 19.4663 116.888 18.8036 116.472 17.9894C116.074 17.1752 115.875 16.1717 115.875 14.9788C115.875 14.051 116.046 13.1894 116.387 12.3942C116.746 11.5989 117.22 10.9078 117.807 10.3208C118.413 9.73387 119.113 9.27944 119.909 8.95755C120.723 8.61672 121.584 8.44631 122.493 8.44631C123.004 8.44631 123.525 8.51258 124.055 8.64513C124.604 8.75873 125.097 8.94808 125.532 9.21317C125.987 9.45932 126.356 9.79067 126.64 10.2072C126.943 10.6049 127.094 11.0972 127.094 11.6841C127.094 12.0818 126.962 12.4131 126.697 12.6782C126.45 12.9244 126.091 13.0474 125.617 13.0474C125.295 13.0474 124.983 12.9812 124.68 12.8486C124.396 12.6971 124.254 12.451 124.254 12.1102C124.254 11.8451 124.32 11.5232 124.453 11.1445C124.585 10.7658 124.652 10.4534 124.652 10.2072C124.652 9.77174 124.434 9.44038 123.998 9.21317C123.563 8.96702 123.061 8.84394 122.493 8.84394C122.077 8.84394 121.641 8.90074 121.187 9.01435C120.751 9.10903 120.344 9.36464 119.965 9.78121C119.606 10.1978 119.303 10.8226 119.056 11.6557C118.829 12.4889 118.716 13.6249 118.716 15.064C118.716 15.8782 118.763 16.645 118.858 17.3645C118.971 18.0841 119.161 18.7184 119.426 19.2675C119.71 19.7976 120.088 20.2237 120.562 20.5456C121.054 20.8485 121.688 21 122.465 21C123.298 21 123.979 20.8769 124.51 20.6308C125.059 20.3846 125.485 20.0911 125.788 19.7503C126.11 19.3906 126.346 19.0308 126.498 18.671C126.649 18.3113 126.763 18.0178 126.839 17.7906L127.265 17.8758ZM132.39 14.922C132.39 16.2663 132.494 17.3361 132.702 18.1314C132.91 18.9267 133.185 19.542 133.526 19.9775C133.867 20.3941 134.264 20.6686 134.719 20.8012C135.173 20.9337 135.656 21 136.167 21C136.678 21 137.161 20.9337 137.616 20.8012C138.07 20.6686 138.468 20.3941 138.809 19.9775C139.149 19.542 139.424 18.9267 139.632 18.1314C139.84 17.3361 139.945 16.2663 139.945 14.922C139.945 13.7859 139.869 12.8392 139.717 12.0818C139.566 11.3054 139.329 10.6806 139.007 10.2072C138.704 9.71493 138.316 9.36464 137.843 9.15636C137.369 8.94808 136.811 8.84394 136.167 8.84394C135.523 8.84394 134.965 8.94808 134.491 9.15636C134.018 9.36464 133.62 9.71493 133.299 10.2072C132.996 10.6806 132.768 11.3054 132.617 12.0818C132.465 12.8392 132.39 13.7859 132.39 14.922ZM129.549 14.922C129.549 13.9942 129.748 13.1326 130.146 12.3374C130.562 11.5421 131.083 10.8605 131.708 10.2924C132.352 9.70547 133.062 9.25104 133.838 8.92915C134.633 8.60726 135.41 8.44631 136.167 8.44631C136.925 8.44631 137.691 8.60726 138.468 8.92915C139.263 9.25104 139.973 9.70547 140.598 10.2924C141.242 10.8605 141.762 11.5421 142.16 12.3374C142.577 13.1326 142.785 13.9942 142.785 14.922C142.785 15.8119 142.595 16.6545 142.217 17.4497C141.838 18.2261 141.336 18.9077 140.711 19.4947C140.106 20.0817 139.405 20.5456 138.61 20.8864C137.814 21.2272 137 21.3976 136.167 21.3976C135.334 21.3976 134.52 21.2272 133.725 20.8864C132.929 20.5456 132.219 20.0817 131.594 19.4947C130.988 18.9077 130.496 18.2261 130.117 17.4497C129.739 16.6545 129.549 15.8119 129.549 14.922ZM144.82 20.6024H147.007V9.21317H144.82V8.81554H149.393V11.6841H149.45C149.525 11.4001 149.649 11.0782 149.819 10.7185C149.989 10.3587 150.226 10.0179 150.529 9.696C150.832 9.35518 151.192 9.07116 151.608 8.84394C152.044 8.61672 152.564 8.50312 153.17 8.50312C153.606 8.50312 153.985 8.57885 154.306 8.73033C154.628 8.86287 154.893 9.04275 155.102 9.26997C155.31 9.47825 155.461 9.7244 155.556 10.0084C155.651 10.2924 155.698 10.5765 155.698 10.8605C155.698 11.4853 155.556 11.9019 155.272 12.1102C154.988 12.3185 154.657 12.4226 154.278 12.4226C153.445 12.4226 153.028 12.1575 153.028 11.6273C153.028 11.4569 153.047 11.3244 153.085 11.2297C153.123 11.1161 153.161 11.012 153.199 10.9173C153.256 10.8037 153.303 10.6806 153.341 10.5481C153.379 10.4155 153.398 10.2262 153.398 9.98002C153.398 9.37411 153.066 9.07116 152.404 9.07116C152.101 9.07116 151.779 9.18476 151.438 9.41198C151.097 9.6392 150.775 9.97055 150.472 10.4061C150.188 10.8415 149.942 11.3717 149.734 11.9966C149.544 12.6025 149.45 13.3031 149.45 14.0983V20.6024H151.921V21H144.82V20.6024Z" fill="#2D2D2B"/>
</svg>
